<svg width="560" height="420" viewBox="0 0 560 420" fill="none" xmlns="http://www.w3.org/2000/svg">
  <rect width="560" height="420" rx="32" fill="#E8F0FF"/>
  <rect x="40" y="48" width="320" height="200" rx="20" fill="#FFFFFF"/>
  <rect x="40" y="48" width="320" height="48" rx="20" fill="#0B1F52"/>
  <circle cx="84" cy="72" r="8" fill="#14B8A6"/>
  <circle cx="108" cy="72" r="8" fill="#A855F7"/>
  <circle cx="132" cy="72" r="8" fill="#60A5FA"/>
  <rect x="72" y="120" width="80" height="16" rx="8" fill="#CBD5F5"/>
  <rect x="72" y="148" width="224" height="12" rx="6" fill="#D9E3FF"/>
  <rect x="72" y="168" width="180" height="12" rx="6" fill="#E2EBFF"/>
  <rect x="72" y="200" width="64" height="32" rx="12" fill="#14B8A6"/>
  <rect x="152" y="200" width="144" height="32" rx="12" fill="#0B1F52"/>
  <rect x="384" y="48" width="136" height="116" rx="20" fill="#FFFFFF"/>
  <rect x="400" y="76" width="104" height="12" rx="6" fill="#CBD5F5"/>
  <rect x="400" y="98" width="72" height="12" rx="6" fill="#E2EBFF"/>
  <rect x="400" y="132" width="104" height="20" rx="10" fill="#0B1F52"/>
  <rect x="40" y="272" width="176" height="108" rx="20" fill="#FFFFFF"/>
  <rect x="64" y="300" width="72" height="12" rx="6" fill="#CBD5F5"/>
  <rect x="64" y="322" width="120" height="12" rx="6" fill="#E2EBFF"/>
  <rect x="64" y="352" width="104" height="28" rx="12" fill="#14B8A6"/>
  <rect x="240" y="272" width="280" height="108" rx="20" fill="#0B1F52"/>
  <rect x="264" y="300" width="96" height="12" rx="6" fill="#233A73"/>
  <rect x="264" y="320" width="208" height="12" rx="6" fill="#233A73"/>
  <rect x="264" y="344" width="152" height="12" rx="6" fill="#233A73"/>
  <rect x="440" y="300" width="56" height="48" rx="12" fill="#14B8A6"/>
</svg>
