<svg width="768" height="768" viewBox="0 0 768 768" fill="none" xmlns="http://www.w3.org/2000/svg">
  <defs>
    <radialGradient id="bgGlow" cx="50%" cy="50%" r="70%">
      <stop offset="0%" stop-color="#10264D"/>
      <stop offset="100%" stop-color="#050B1A"/>
    </radialGradient>
    <linearGradient id="core" x1="0%" y1="0%" x2="100%" y2="100%">
      <stop offset="0%" stop-color="#1CC8FF"/>
      <stop offset="100%" stop-color="#0C6CF2"/>
    </linearGradient>
    <linearGradient id="neurons" x1="0%" y1="0%" x2="100%" y2="0%">
      <stop offset="0%" stop-color="#7FE7FF" stop-opacity="0.4"/>
      <stop offset="100%" stop-color="#7FE7FF" stop-opacity="0"/>
    </linearGradient>
    <filter id="glow" x="-50%" y="-50%" width="200%" height="200%">
      <feGaussianBlur stdDeviation="18" result="blur"/>
      <feMerge>
        <feMergeNode in="blur"/>
        <feMergeNode in="SourceGraphic"/>
      </feMerge>
    </filter>
  </defs>
  <rect width="768" height="768" fill="url(#bgGlow)"/>
  <g filter="url(#glow)">
    <rect x="204" y="430" width="360" height="118" rx="32" fill="#0F2648" stroke="#1CC8FF" stroke-opacity="0.35" stroke-width="2"/>
    <rect x="240" y="456" width="288" height="68" rx="20" fill="#091B33" stroke="#1CC8FF" stroke-opacity="0.45" stroke-width="1.5"/>
    <rect x="310" y="484" width="148" height="28" rx="14" fill="url(#core)"/>
  </g>
  <g filter="url(#glow)">
    <path d="M384 196c-88 0-158 70-158 156 0 68 43 126 103 148 10 4 16 14 15 25l-4 30h88l-4-30c-1-11 5-21 15-25 60-22 103-80 103-148 0-86-70-156-158-156z" fill="#0D1D38" stroke="#4DD0FF" stroke-width="2.5"/>
    <path d="M384 236c-64 0-118 52-118 116 0 52 34 97 83 111 13 4 21 16 20 30l-1 8h52l-1-8c-2-14 7-26 20-30 49-14 83-59 83-111 0-64-54-116-118-116z" fill="#0B284D" stroke="#66E4FF" stroke-opacity="0.4" stroke-width="1.5"/>
  </g>
  <g stroke="url(#neurons)" stroke-width="2" stroke-linecap="round">
    <path d="M256 332h-68l-36-36"/>
    <path d="M228 384h-88l-48-48"/>
    <path d="M512 332h68l36-36"/>
    <path d="M540 384h88l48-48"/>
    <path d="M384 216v-74"/>
    <path d="M344 228l-30-70"/>
    <path d="M424 228l30-70"/>
  </g>
  <g fill="#1CC8FF">
    <circle cx="188" cy="296" r="12" fill-opacity="0.35"/>
    <circle cx="156" cy="336" r="10" fill-opacity="0.45"/>
    <circle cx="580" cy="296" r="12" fill-opacity="0.35"/>
    <circle cx="612" cy="336" r="10" fill-opacity="0.45"/>
    <circle cx="384" cy="142" r="12" fill-opacity="0.45"/>
  </g>
  <text x="384" y="360" text-anchor="middle" fill="#79F0FF" font-family="'Plus Jakarta Sans', 'Inter', sans-serif" font-size="70" font-weight="600" letter-spacing="4">XAI</text>
  <g fill="#0D1D38" stroke="#1CC8FF" stroke-opacity="0.35" stroke-width="1.2" filter="url(#glow)">
    <rect x="120" y="440" width="72" height="72" rx="16"/>
    <rect x="576" y="440" width="72" height="72" rx="16"/>
    <rect x="172" y="268" width="80" height="80" rx="18"/>
    <rect x="516" y="268" width="80" height="80" rx="18"/>
  </g>
</svg>
